<svg id="svg" version="1.1" xmlns="http://www.w3.org/2000/svg" xmlns:xlink="http://www.w3.org/1999/xlink" width="400" height="400" viewBox="0, 0, 400,400"><g id="svgg"><path id="path0" d="M181.238 56.917 C 178.379 58.438,175.035 63.341,175.013 66.042 C 175.002 67.372,173.759 68.003,167.383 69.916 C 122.707 83.314,92.947 123.350,90.866 172.852 C 90.393 184.118,90.343 184.375,88.634 184.375 C 86.364 184.375,85.938 185.658,85.938 192.486 C 85.938 198.311,86.675 200.000,89.219 200.000 C 90.563 200.000,90.626 203.166,90.637 271.289 C 90.644 310.498,90.933 343.025,91.280 343.572 C 91.763 344.333,95.468 344.516,107.088 344.353 L 122.266 344.141 122.505 312.109 C 122.993 246.933,119.116 208.113,110.431 191.197 C 109.544 189.469,109.522 188.975,110.324 188.737 C 152.303 176.285,178.656 151.053,193.008 109.570 C 195.407 102.636,196.211 101.419,197.266 103.125 C 197.531 103.555,198.762 103.906,200.000 103.906 C 201.238 103.906,202.469 103.555,202.734 103.125 C 203.811 101.384,204.626 102.715,207.398 110.742 C 221.080 150.368,248.521 177.828,284.142 187.540 L 290.549 189.287 289.504 191.323 C 280.887 208.112,277.008 247.126,277.495 312.109 L 277.734 344.141 292.912 344.353 C 304.532 344.516,308.237 344.333,308.720 343.572 C 309.067 343.025,309.356 310.498,309.363 271.289 C 309.374 203.166,309.437 200.000,310.781 200.000 C 313.325 200.000,314.063 198.311,314.063 192.486 C 314.063 185.658,313.636 184.375,311.366 184.375 C 309.657 184.375,309.607 184.118,309.134 172.852 C 307.053 123.339,277.296 83.342,232.536 69.895 C 226.366 68.042,225.000 67.356,225.000 66.111 C 225.000 57.186,212.470 52.440,203.985 58.150 L 200.000 60.832 196.015 58.150 C 191.275 54.960,185.778 54.501,181.238 56.917 M192.267 62.726 C 193.727 63.709,195.739 65.994,196.738 67.804 C 199.098 72.078,200.902 72.078,203.262 67.804 C 208.593 58.147,219.531 59.197,219.531 69.366 C 219.531 76.829,205.153 97.656,200.000 97.656 C 197.644 97.656,186.320 84.970,183.343 78.997 C 177.155 66.577,182.774 56.331,192.267 62.726 M176.155 77.294 C 177.725 82.020,182.105 88.864,187.074 94.354 L 190.802 98.474 187.910 106.854 C 175.658 142.344,150.895 168.676,119.141 179.978 C 110.882 182.917,104.523 184.375,99.962 184.375 L 95.853 184.375 96.383 173.271 C 98.362 131.823,119.195 98.914,154.659 81.218 C 159.209 78.947,172.813 73.688,174.742 73.454 C 174.815 73.445,175.451 75.173,176.155 77.294 M239.547 78.546 C 277.492 94.173,301.538 129.725,303.617 173.271 L 304.147 184.375 299.425 184.375 C 264.645 184.375,227.149 151.106,212.056 106.854 L 209.198 98.474 212.926 94.354 C 217.876 88.885,222.273 82.025,223.826 77.350 L 225.089 73.548 229.146 74.741 C 231.377 75.396,236.058 77.109,239.547 78.546 M166.406 85.479 C 140.224 95.275,118.308 118.695,109.831 145.939 C 107.527 153.342,107.340 155.667,108.943 156.997 C 111.033 158.731,112.657 156.698,114.610 149.905 C 122.378 122.879,142.159 101.511,169.780 90.307 C 175.889 87.830,172.622 83.153,166.406 85.479 M227.924 84.836 C 226.148 86.612,227.418 89.216,230.664 90.458 C 256.675 100.405,277.739 123.286,285.390 149.905 C 287.343 156.698,288.967 158.731,291.057 156.997 C 296.564 152.426,281.627 122.100,266.445 107.031 C 254.401 95.077,231.106 81.654,227.924 84.836 M152.529 179.883 C 152.095 180.420,151.194 185.698,150.524 191.613 C 148.996 205.122,149.852 208.424,155.662 211.428 C 157.752 212.509,157.813 212.727,157.813 219.161 L 157.813 225.781 152.840 225.781 C 147.721 225.781,144.732 227.175,143.030 230.355 C 140.860 234.409,133.265 294.448,134.574 297.194 C 137.896 304.160,151.117 305.106,162.891 299.219 C 172.443 294.443,176.775 294.363,184.961 298.812 L 190.625 301.891 190.625 313.738 L 190.625 325.585 184.180 325.939 C 173.032 326.551,166.885 331.578,166.825 340.135 L 166.797 344.141 200.000 344.141 L 233.203 344.141 233.175 340.135 C 233.115 331.578,226.968 326.551,215.820 325.939 L 209.375 325.585 209.375 313.738 L 209.375 301.891 215.039 298.812 C 223.225 294.363,227.557 294.443,237.109 299.219 C 248.904 305.116,262.098 304.173,265.426 297.194 C 266.735 294.448,259.140 234.409,256.970 230.355 C 255.318 227.267,252.257 225.781,247.551 225.781 L 242.969 225.781 242.969 218.921 L 242.969 212.061 245.274 211.191 C 250.572 209.191,251.585 204.313,249.906 188.895 C 248.830 179.019,248.716 178.906,239.790 178.906 C 231.181 178.906,231.420 178.579,229.896 192.439 C 228.472 205.391,228.926 207.169,234.605 210.873 L 237.500 212.762 237.500 219.272 L 237.500 225.781 232.531 225.781 L 227.561 225.781 227.086 221.770 C 225.737 210.377,213.207 196.094,204.563 196.094 C 203.518 196.094,203.122 195.507,203.114 193.945 C 203.093 189.721,202.302 188.281,200.000 188.281 C 197.698 188.281,196.907 189.721,196.886 193.945 C 196.878 195.507,196.482 196.094,195.437 196.094 C 186.793 196.094,174.263 210.377,172.914 221.770 L 172.439 225.781 167.860 225.781 L 163.281 225.781 163.281 219.161 C 163.281 212.727,163.342 212.509,165.432 211.428 C 168.393 209.897,170.226 207.713,171.096 204.679 C 171.971 201.628,169.972 181.551,168.633 179.937 C 167.471 178.537,153.652 178.490,152.529 179.883 M164.100 184.570 C 167.366 201.587,165.436 209.084,158.526 206.222 C 155.208 204.848,154.649 198.752,156.754 186.914 C 157.138 184.754,163.731 182.650,164.100 184.570 M244.172 188.651 C 245.956 202.931,244.163 208.577,238.480 206.579 C 234.938 205.333,234.323 202.952,235.253 194.098 C 236.323 183.920,236.094 184.375,240.154 184.375 L 243.638 184.375 244.172 188.651 M105.482 194.727 C 113.535 212.014,116.260 236.525,116.947 297.852 L 117.409 339.063 106.755 339.063 L 96.102 339.063 95.903 266.992 L 95.703 194.922 93.555 194.675 C 91.755 194.468,91.406 194.055,91.406 192.136 L 91.406 189.844 97.307 189.844 L 103.207 189.844 105.482 194.727 M308.594 192.136 C 308.594 194.055,308.245 194.468,306.445 194.675 L 304.297 194.922 304.097 266.992 L 303.898 339.063 293.247 339.063 L 282.597 339.063 283.051 297.852 C 283.725 236.633,286.462 212.021,294.518 194.727 L 296.793 189.844 302.693 189.844 L 308.594 189.844 308.594 192.136 M207.548 203.073 C 214.115 206.055,220.357 214.691,221.560 222.461 L 222.075 225.781 200.000 225.781 L 177.925 225.781 178.452 222.461 C 180.303 210.804,189.812 201.597,200.000 201.597 C 202.545 201.597,205.622 202.199,207.548 203.073 M250.600 231.903 C 251.636 232.560,253.125 236.894,253.125 239.253 C 253.125 240.464,252.264 240.625,245.767 240.625 C 236.829 240.625,235.938 240.916,235.938 243.834 L 235.938 246.094 244.907 246.094 C 253.574 246.094,253.889 246.153,254.261 247.852 C 256.726 259.131,260.762 293.512,259.794 294.989 C 257.151 299.022,249.082 298.608,239.802 293.962 C 229.109 288.610,222.098 288.549,212.401 293.727 C 202.941 298.778,197.059 298.778,187.599 293.727 C 177.860 288.527,170.862 288.585,160.153 293.954 C 150.861 298.614,142.854 299.029,140.206 294.989 C 139.238 293.512,143.274 259.131,145.739 247.852 L 146.124 246.094 186.643 246.094 C 226.622 246.094,227.167 246.073,227.574 244.518 C 228.591 240.626,228.583 240.625,186.175 240.625 L 146.680 240.625 147.168 238.184 C 147.437 236.841,147.656 235.284,147.656 234.724 C 147.656 231.213,147.107 231.249,199.860 231.262 C 227.222 231.269,250.055 231.557,250.600 231.903 M203.906 314.453 L 203.906 325.781 200.000 325.781 L 196.094 325.781 196.094 314.453 L 196.094 303.125 200.000 303.125 L 203.906 303.125 203.906 314.453 M220.458 332.058 C 223.114 332.796,227.344 336.655,227.344 338.341 C 227.344 338.768,216.193 339.063,200.000 339.063 C 183.807 339.063,172.656 338.768,172.656 338.341 C 172.656 336.778,176.827 332.785,179.166 332.107 C 182.600 331.113,216.908 331.073,220.458 332.058 " stroke="none" fill="#000000" fill-rule="evenodd"></path></g></svg>